<?xml version="1.0" encoding="UTF-8"?>
<svg id="Layer_1" data-name="Layer 1" xmlns="http://www.w3.org/2000/svg" viewBox="0 0 1000 1000">
  <defs>
    <style>
      .cls-1 {
        fill: #e0a404;
        stroke-width: 0px;
      }
    </style>
  </defs>
  <g>
    <path class="cls-1" d="M497.36,405.17h0v-.07h-.12l-51.75-29.88-2.76,4.79,45.53,26.29v59.62s-.04-.03-.06-.05c-13.86-11.42-28.86-23.72-44.42-35.56-7.67-6.68-18.46-11.3-28.97-9.83-27.44,2.76-43.32,37.24-25.05,58.85,3.12,3.86,7.27,6.79,11.25,9.54,11.65,8.1,22.64,17.13,33.74,25.96.08.06.16.12.24.19-.08.07-.16.15-.24.22-.03.03-.09.09-.11.11l-13.49,13.09c-4.77,4.54-8.49,10.62-10.34,17.1-7.87,27.98,18.66,54.59,46.53,45.25,12.38-3.86,19.54-15,28.63-23.35.75-.75,1.53-1.5,2.3-2.24v15.03l9.1,21.13v-196.19h0ZM402.14,487.34c-16.73-9.97-21.25-32.49-8.86-47.63,7.7-11.11,22.47-15.71,35.11-11.39,4.23,1.33,7.73,3.83,11.65,6.59,15.14,10.45,30.85,20.45,47.75,31.36.09.05.18.11.26.17-.09.08-.17.16-.26.24-15.97,14.19-32.86,29.44-49.59,45.32-.08-.06-.17-.11-.26-.17-12.07-7.98-24.29-15.74-35.79-24.48ZM484.46,565.92c-8.52,8.01-16.22,18.66-28.15,21.39-23.52,5.96-45.79-16.7-38.43-39.74,1.62-5.2,4.4-9.94,8.49-13.8l12.38-12.78c.45-.48.94-.99,1.39-1.48,1.14-1.16,2.27-2.36,3.35-3.55,14.74-15.57,29.31-31.76,44.76-48.97v95.03c-1.25,1.31-2.52,2.61-3.81,3.9Z"/>
    <path class="cls-1" d="M513.31,405.18v196.19s9.1-21.13,9.1-21.13v-15.03c.77.74,1.55,1.49,2.3,2.24,9.09,8.35,16.25,19.49,28.63,23.35,27.86,9.34,54.39-17.27,46.53-45.25-1.85-6.48-5.57-12.55-10.34-17.1l-13.49-13.09s-.09-.09-.11-.11c-.08-.07-.16-.15-.24-.22.08-.06.16-.12.24-.19,11.11-8.83,22.1-17.87,33.74-25.96,3.98-2.76,8.12-5.68,11.25-9.54,18.26-21.62,2.39-56.1-25.05-58.85-10.51-1.48-21.3,3.15-28.97,9.83-15.57,11.84-30.56,24.14-44.42,35.56-.02.02-.04.03-.06.05v-59.62s45.53-26.29,45.53-26.29l-2.76-4.79-51.75,29.88h-.12v.07h0s0,0,0,0ZM572.74,511.83c-.08.06-.17.11-.26.17-16.73-15.88-33.63-31.13-49.59-45.32-.09-.09-.17-.16-.26-.24.08-.06.17-.12.26-.17,16.9-10.91,32.61-20.91,47.75-31.36,3.92-2.76,7.41-5.25,11.65-6.59,12.64-4.32,27.41.28,35.11,11.39,12.38,15.14,7.87,37.66-8.86,47.63-11.5,8.75-23.72,16.5-35.79,24.48ZM522.4,562.02v-95.03c15.45,17.21,30.02,33.4,44.76,48.97,1.08,1.19,2.22,2.39,3.35,3.55.45.48.94.99,1.39,1.48l12.38,12.78c4.09,3.86,6.87,8.61,8.49,13.8,7.36,23.04-14.91,45.7-38.43,39.74-11.93-2.73-19.63-13.38-28.15-21.39-1.28-1.28-2.55-2.59-3.81-3.9Z"/>
    <circle class="cls-1" cx="506.4" cy="372.4" r="16.22"/>
  </g>
  <g>
    <path class="cls-1" d="M692.11,751.94h18.11c-4.33-.7-6.12-3.84-6.12-3.84v-84.71s1.17-3.21,5.5-3.91h-15.05v81.72l-25.9-81.28h-12.87c.62.24,1.17.52,1.65.81v84.64c-1.53,6.54-5.83,6.91-5.83,6.91h14.22s-4.3-.37-5.83-6.91v-74.95c-.46-7.55,2.36,0,2.36,0l.37.97.13.41"/>
    <path class="cls-1" d="M626.93,751.99h-.33s.12.05.33,0Z"/>
    <path class="cls-1" d="M342.53,746.06c-2.64-4.64-21.77-40.36-21.77-40.36,0,0-1.78-3.81,3.84-4.75,0,0,17.35-3.97,16.15-22.57-.64-9.86-6.9-14.73-12.41-17.12-3.53-1.52-7.37-2.23-11.22-2.23h-32.2s5.15.71,5.06,4.53c-.1,3.82,0,83.72,0,83.72,0,0-.47,3.29-5.06,3.82h19.15s-3.86-.46-5.23-3.57v-50.72s.18-4.29,3.63-1.1c3.45,3.2,4.68,4.24,11.08,15.86,5.38,9.76,14.53,26.96,17.3,32.2.43.81.92,1.56,1.47,2.29,1.05,1.41,2.39,4.39-4.38,5.04h20.79s-3.58-.41-6.21-5.05ZM299.18,682.9v-22.02h19.5s16.79.7,12.1,25.51c-5.12,27.06-31.6,5.07-31.6-3.49Z"/>
    <path class="cls-1" d="M278.14,746.42l-27.84-87.38h-12.87c5.93,2.29,4.96,7.39,4.96,7.39l-23.12,73.8-1.7,5.42s0,.01,0,.02c-1.72,4.53-3.12,5.33-3.72,5.45h5.06v-.05l12.38.03c-4.96-.32-4.28-6.28-4.28-6.28,0,0,2.42-18.25,3.46-23.85,1.04-5.61,5.74-4.58,5.74-4.58h19.13c4.4.68,5.29,4.78,5.29,4.78,0,0,3.24,11.17,6.92,21.13,2.62,7.08-.56,8.52-2.6,8.76h18.35c-1.15,0-2.14-.54-2.92-1.19-1.07-.9-1.83-2.12-2.25-3.45ZM254.61,714.59h-19.32c-2.12,0-3.65-2.02-3.08-4.06l10.91-39c.26-.94,1.58-.96,1.87-.04l12.65,38.91c.67,2.07-.87,4.19-3.04,4.19Z"/>
    <path class="cls-1" d="M264.96,751.06h-1.48s.65.1,1.48,0Z"/>
    <path class="cls-1" d="M213.85,751.11h-.33s.12.05.33,0Z"/>
    <path class="cls-1" d="M418.07,746.4l-27.84-87.38h-12.87c5.93,2.29,4.96,7.39,4.96,7.39l-23.12,73.8-1.7,5.42s0,.01,0,.02c-1.72,4.53-3.12,5.33-3.72,5.45h5.06v-.05l12.38.03c-4.96-.32-4.28-6.28-4.28-6.28,0,0,2.42-18.25,3.46-23.85,1.04-5.61,5.74-4.58,5.74-4.58h19.13c4.4.68,5.29,4.78,5.29,4.78,0,0,3.24,11.17,6.92,21.13,2.62,7.08-.56,8.52-2.6,8.76h18.35c-1.15,0-2.14-.54-2.92-1.19-1.07-.9-1.83-2.12-2.25-3.45ZM394.54,714.58h-19.32c-2.12,0-3.65-2.02-3.08-4.06l10.91-39c.26-.93,1.58-.96,1.87-.04l12.65,38.91c.67,2.07-.87,4.19-3.04,4.19Z"/>
    <path class="cls-1" d="M404.89,751.05h-1.48s.65.1,1.48,0Z"/>
    <path class="cls-1" d="M353.78,751.1h-.33s.12.05.33,0Z"/>
    <path class="cls-1" d="M639.22,746.19l-27.84-87.38h-12.87c5.93,2.29,4.96,7.39,4.96,7.39l-23.12,73.8-1.7,5.42s0,.01,0,.02c-1.72,4.53-3.12,5.33-3.72,5.45h5.06v-.05l12.38.03c-4.96-.32-4.28-6.28-4.28-6.28,0,0,2.42-18.25,3.46-23.85,1.04-5.61,5.74-4.58,5.74-4.58h19.13c4.4.68,5.29,4.78,5.29,4.78,0,0,3.24,11.17,6.92,21.13,2.62,7.08-.56,8.52-2.6,8.76h18.35c-1.15,0-2.14-.54-2.92-1.19-1.07-.9-1.83-2.12-2.25-3.45ZM615.69,714.36h-19.32c-2.12,0-3.65-2.02-3.08-4.06l10.91-39c.26-.93,1.58-.96,1.88-.04l12.65,38.91c.67,2.07-.87,4.19-3.04,4.19Z"/>
    <path class="cls-1" d="M626.04,750.83h-1.48s.65.1,1.48,0Z"/>
    <path class="cls-1" d="M574.93,750.88h-.33s.12.05.33,0Z"/>
    <path class="cls-1" d="M454.87,659.29c-5.12-.76-12.79-.28-18.02-.28l-1.98.03h-6.94s5.16.71,5.07,4.53c-.1,3.82,0,83.73,0,83.73,0,0-.48,3.29-5.07,3.82h19.16s-.07,0-.2-.03c.34,0,.66,0,.98,0,16.15.3,32.44-8.1,40.79-22.13,5.26-8.56,6.98-18.99,5.99-28.89-1.86-20.67-19.36-38.16-39.79-40.77ZM488.92,709.61c-1.07,21.73-18.74,40.81-41.04,40.9-.85,0-1.8.01-2.78.02h0c-1.1-.47-2.4-1.32-3.12-2.78-.02-.03-.03-.06-.05-.1-.02-.03-.03-.07-.05-.11v-50.71s0-.18.05-.44v-33.4c3.9.02,8.3.06,11.18.5,6.66.91,13.09,3.49,18.5,7.42,12.41,8.91,18.37,23.7,17.32,38.71Z"/>
    <path class="cls-1" d="M564.79,663.13c-.1-3.86,5.12-4.57,5.12-4.57h-14.12v5.01h-.23c.15.3.23.63.23.99v46.4c0,1.29-1.05,2.33-2.33,2.33h-35.39c-1.29,0-2.34-1.05-2.34-2.33v-46.4c0-.36.08-.69.23-.99h-.48v-5.21h-14.12s5.21.72,5.12,4.57c-.1,3.86,0,84.59,0,84.59,0,0-.48,3.32-5.12,3.86h19.35s-3.73-.44-5.19-3.4c-.02-.03-.03-.07-.05-.1-.02-.03-.09-.74-.1-.78v-5.8h.11v-23.19c0-.95.77-1.72,1.72-1.72h36.91c.95,0,1.72.78,1.72,1.72v29.86s-.03.08-.05.11c-.01.03-.03.06-.05.1-1.45,2.96-5.19,3.4-5.19,3.4h19.35c-4.63-.53-5.12-3.86-5.12-3.86,0,0,.1-80.71,0-84.57Z"/>
    <path class="cls-1" d="M783.56,750.01c-1.07-.9-1.83-2.12-2.25-3.45l-27.84-87.38h-12.87c5.93,2.29,4.96,7.39,4.96,7.39l-23.12,73.8-1.7,5.42s0,.01,0,.02c-1.72,4.53-3.12,5.33-3.72,5.45h5.06v-.05l12.38.03c-4.96-.32-4.28-6.28-4.28-6.28,0,0,2.42-18.25,3.46-23.85,1.04-5.61,5.74-4.58,5.74-4.58h19.13c4.4.68,5.29,4.78,5.29,4.78,0,0,3.24,11.17,6.92,21.13,2.62,7.08-.56,8.52-2.6,8.76h18.35c-1.15,0-2.14-.54-2.92-1.19ZM757.78,714.74h-19.32c-2.11,0-3.65-2.02-3.07-4.06l10.91-39c.26-.94,1.57-.96,1.87-.04l12.65,38.91c.67,2.07-.87,4.19-3.04,4.19Z"/>
    <path class="cls-1" d="M766.65,751.21s.65.1,1.48,0h-1.48Z"/>
    <path class="cls-1" d="M716.7,751.26s.12.05.33,0h-.33Z"/>
  </g>
  <g>
    <path class="cls-1" d="M356.87,336.1c1.1.6,1.97,1.41,2.62,2.43.65,1.03.9,2.29.74,3.8,1.27-1.19,2.62-1.87,4.04-2.02,1.42-.16,2.78.12,4.08.82,2.32,1.26,3.59,3.03,3.81,5.31.22,2.28-.51,4.97-2.18,8.05-.58,1.07-1.19,2.09-1.82,3.05-.64.96-1.33,1.83-2.08,2.61-.89.91-1.76,1.12-2.63.65l-19.61-10.62c-.74-.4-.99-1.08-.77-2.05.21-1.01.54-2.02.98-3.04.44-1.02.97-2.1,1.59-3.25,1.56-2.88,3.29-4.85,5.18-5.91,1.89-1.05,3.91-1,6.06.16ZM353.74,351.59l2.82-5.21c.87-1.61,1.17-3.02.91-4.24-.26-1.22-1.01-2.16-2.24-2.82-2.53-1.37-4.87-.06-7.03,3.92-.48.89-.87,1.68-1.16,2.37-.29.69-.53,1.34-.73,1.95l7.43,4.02ZM356.26,352.96l8.27,4.48c.46-.54.95-1.2,1.46-1.96.51-.76.99-1.55,1.43-2.37,1.15-2.12,1.67-3.92,1.56-5.4-.11-1.48-.91-2.62-2.42-3.44-1.33-.72-2.65-.8-3.96-.24-1.31.56-2.48,1.8-3.52,3.71l-2.82,5.21Z"/>
    <path class="cls-1" d="M377.8,339.49c-.49.06-.96-.08-1.42-.43l-17.99-13.75c-.46-.35-.73-.77-.79-1.26-.06-.49.08-.96.43-1.42l8.78-11.49c.17.02.38.07.63.15s.49.21.72.39c.39.3.63.63.72.99s0,.71-.26,1.06l-7.22,9.45,6.68,5.1,6.98-9.14c.17.02.38.07.63.15s.49.21.72.39c.39.3.63.63.7.98s-.01.7-.28,1.05l-6.4,8.37,7.27,5.55,7.93-10.38c.17.02.37.06.61.14.24.07.48.21.74.4.39.3.63.63.71.98s-.02.7-.28,1.05l-8.33,10.9c-.35.46-.77.73-1.26.79Z"/>
    <path class="cls-1" d="M389.04,293.23l15.43,17.58c-.07.14-.2.34-.38.59-.18.25-.39.49-.63.7-.96.84-1.79.86-2.5.05l-14.57-16.59-6.12,5.37c-.16-.05-.35-.14-.58-.27-.23-.13-.45-.31-.66-.55-.33-.37-.49-.73-.5-1.1,0-.36.15-.68.48-.97l14.17-12.44c.16.05.36.14.58.27.23.13.44.3.63.52.33.37.5.74.52,1.11.02.37-.14.7-.47.99l-5.4,4.74Z"/>
    <path class="cls-1" d="M431.08,292.4c-.21.22-.46.42-.75.6-1.08.68-1.91.56-2.48-.35l-5.59-8.94-11.52,7.2,6.28,10.04c-.12.14-.28.32-.49.54s-.46.41-.75.6c-1.08.68-1.91.56-2.48-.35l-13.25-21.2c.09-.13.25-.3.47-.52.22-.22.48-.43.77-.61,1.08-.68,1.91-.56,2.48.35l5.4,8.64,11.52-7.2-6.1-9.75c.09-.13.25-.3.47-.52s.48-.43.77-.61c1.08-.68,1.91-.56,2.48.35l13.25,21.2c-.12.14-.28.32-.49.54Z"/>
    <path class="cls-1" d="M437.89,288.41c-.46-.19-.8-.55-1.02-1.09l-8.71-20.9c-.22-.54-.24-1.03-.05-1.49.19-.46.55-.8,1.08-1.02l13.35-5.56c.14.1.29.25.47.44.17.19.32.43.43.69.19.46.23.86.13,1.22-.1.36-.35.62-.76.79l-10.98,4.57,3.23,7.76,10.61-4.42c.14.1.29.25.47.44.17.19.32.43.43.69.19.46.23.86.12,1.2-.11.34-.36.6-.77.77l-9.73,4.05,3.52,8.44,12.06-5.02c.14.1.29.24.46.42s.31.42.44.71c.19.46.23.86.12,1.2-.11.34-.36.6-.77.77l-12.66,5.27c-.54.22-1.03.24-1.49.05Z"/>
    <path class="cls-1" d="M480.8,252.05c.08.4.02.77-.17,1.1-.19.33-.43.6-.72.8-.84-.37-1.8-.7-2.88-.97-1.09-.27-2.43-.26-4.02.04-1.31.25-2.48.7-3.51,1.37-1.03.67-1.87,1.52-2.53,2.56s-1.1,2.27-1.32,3.7c-.22,1.43-.17,3.01.16,4.75.33,1.77.85,3.27,1.55,4.49.7,1.23,1.54,2.21,2.52,2.94.98.73,2.08,1.21,3.3,1.44s2.54.21,3.93-.05c1.48-.28,2.74-.73,3.76-1.35,1.02-.62,1.85-1.28,2.48-1.99.31.06.62.22.93.47.31.25.51.58.58.98.11.6-.13,1.2-.72,1.82-.57.58-1.39,1.15-2.47,1.73-1.07.57-2.49,1.02-4.26,1.35-1.8.34-3.52.36-5.17.08-1.65-.28-3.14-.88-4.48-1.8-1.34-.92-2.49-2.15-3.46-3.72-.97-1.56-1.67-3.47-2.09-5.72-.42-2.25-.46-4.29-.1-6.12.35-1.82.99-3.41,1.92-4.77.93-1.35,2.1-2.46,3.52-3.32,1.42-.86,2.97-1.44,4.66-1.76,1.17-.22,2.26-.32,3.29-.3,1.02.02,1.91.12,2.67.32.76.2,1.37.47,1.83.81.46.34.73.71.81,1.11Z"/>
    <path class="cls-1" d="M510.3,274.51c-.29.08-.61.12-.95.12-1.28.02-1.93-.51-1.94-1.58l-.16-10.54-13.59.21.18,11.84c-.17.06-.41.13-.69.21-.29.08-.61.12-.96.12-1.28.02-1.92-.51-1.94-1.58l-.38-24.99c.14-.06.37-.13.67-.21.3-.08.63-.12.98-.12,1.28-.02,1.93.51,1.94,1.58l.15,10.19,13.59-.2-.17-11.5c.14-.06.37-.13.67-.21.3-.08.63-.12.98-.12,1.28-.02,1.93.51,1.94,1.58l.38,24.99c-.17.06-.4.13-.69.21Z"/>
    <path class="cls-1" d="M533.21,270.27l-11.53-1.8c-.29.54-.6,1.13-.94,1.77-.34.64-.66,1.26-.98,1.87-.32.61-.62,1.18-.91,1.71-.29.53-.52.97-.69,1.33-.43.11-.91.12-1.46.04-.46-.07-.85-.26-1.17-.56-.32-.3-.44-.72-.35-1.27.04-.26.13-.52.25-.77.13-.26.28-.54.44-.84.62-1.14,1.41-2.6,2.38-4.39.97-1.79,2.02-3.69,3.14-5.7,1.12-2.01,2.26-4.04,3.42-6.08,1.16-2.04,2.21-3.86,3.17-5.48.25-.08.61-.14,1.08-.18.48-.04.96-.03,1.45.05.57.09,1.11.26,1.62.52.5.26.79.6.87,1.02.43,1.77.87,3.79,1.33,6.05.45,2.26.91,4.57,1.36,6.93.45,2.36.88,4.69,1.27,6.97.39,2.28.74,4.34,1.04,6.18-.27.22-.57.39-.91.49-.34.11-.71.13-1.11.07-.55-.09-.94-.27-1.19-.56-.25-.29-.43-.73-.54-1.34l-1.04-6.02ZM530.03,252.89c-.45.81-.96,1.74-1.54,2.78-.57,1.04-1.17,2.13-1.79,3.27-.62,1.14-1.24,2.29-1.86,3.45-.62,1.17-1.21,2.28-1.76,3.34l9.68,1.51c-.23-1.36-.47-2.73-.72-4.1-.26-1.38-.5-2.7-.73-3.97s-.44-2.44-.64-3.52c-.2-1.07-.36-1.99-.47-2.74l-.17-.03Z"/>
    <path class="cls-1" d="M543.52,280.02c-1.21-.41-1.64-1.11-1.31-2.1l7.91-23.3c.66-.33,1.49-.32,2.48.01.66.22,1.18.55,1.56.97.38.42.64,1.04.8,1.86l3.39,15.87c.13.69.27,1.42.41,2.19.14.77.26,1.53.37,2.29.11.76.21,1.47.31,2.13.1.66.18,1.22.24,1.67l.18.02c.53-2.3,1.16-4.59,1.89-6.86.72-2.27,1.45-4.47,2.18-6.62l2.83-8.33c.18,0,.43.01.72.04s.61.09.94.21c1.21.41,1.65,1.11,1.31,2.1l-7.93,23.34c-.32.14-.7.2-1.12.19-.43,0-.87-.09-1.34-.25-.66-.22-1.18-.55-1.56-.97-.38-.42-.64-1.04-.79-1.86l-3.35-15.86c-.14-.66-.29-1.39-.43-2.17-.15-.79-.29-1.55-.41-2.3-.13-.75-.24-1.46-.33-2.14-.09-.68-.17-1.24-.23-1.69l-.18-.02c-.31,1.37-.71,2.91-1.2,4.63s-.99,3.33-1.51,4.85l-4.19,12.33c-.16,0-.39,0-.7-.03-.31-.03-.62-.09-.92-.2Z"/>
    <path class="cls-1" d="M587.42,296.15c-.25.46-.6.76-1.03.92-.44.16-1,.23-1.68.21-.81-.05-1.83-.27-3.07-.66-1.25-.39-2.44-.9-3.58-1.54-1.78-.99-3.27-2.13-4.47-3.43-1.2-1.3-2.06-2.74-2.58-4.32-.52-1.58-.65-3.29-.39-5.12s.95-3.78,2.1-5.83c1.13-2.03,2.42-3.64,3.88-4.82,1.46-1.18,2.99-1.98,4.6-2.4,1.61-.42,3.25-.49,4.92-.2,1.67.28,3.29.86,4.86,1.73,1.07.59,2,1.23,2.8,1.91.8.68,1.44,1.34,1.91,1.98.47.64.79,1.24.95,1.8.16.55.14,1.01-.06,1.36-.2.36-.47.6-.81.74-.34.14-.69.2-1.04.17-.43-.84-1.01-1.71-1.73-2.63-.72-.92-1.82-1.78-3.29-2.6-1.22-.68-2.46-1.1-3.73-1.27s-2.5-.08-3.7.29c-1.2.36-2.34,1.02-3.44,1.98-1.1.95-2.07,2.2-2.93,3.75-.92,1.65-1.48,3.19-1.69,4.61-.21,1.43-.13,2.74.25,3.95.38,1.21,1,2.29,1.88,3.26.87.97,1.94,1.8,3.21,2.51.91.51,1.82.91,2.72,1.21.9.3,1.63.46,2.22.49l3.89-7-5.75-3.19c0-.17.01-.38.06-.64.04-.26.14-.51.28-.77.24-.43.53-.71.86-.84.34-.13.69-.09,1.07.13l6.36,3.53c.46.25.76.62.92,1.08s.1.94-.17,1.43l-4.59,8.26Z"/>
    <path class="cls-1" d="M591.33,302.15c-.06-.49.09-.96.45-1.42l14.04-17.76c.36-.45.78-.71,1.27-.77.49-.06.96.09,1.42.45l11.34,8.97c-.02.17-.08.38-.16.62-.09.25-.22.49-.4.71-.31.39-.64.62-1,.71-.36.08-.72-.01-1.06-.28l-9.33-7.37-5.21,6.59,9.02,7.13c-.02.17-.07.38-.16.62-.09.25-.22.49-.4.71-.31.39-.64.62-.99.69-.35.07-.7-.03-1.04-.3l-8.27-6.54-5.67,7.17,10.25,8.1c-.02.17-.07.37-.15.61s-.21.48-.41.73c-.31.39-.64.62-.99.69-.35.07-.7-.03-1.04-.3l-10.76-8.51c-.46-.36-.71-.79-.77-1.27Z"/>
    <path class="cls-1" d="M640.64,323.78c-.96.8-2.04,1.31-3.23,1.53s-2.46-.02-3.8-.72c.64,1.63.76,3.13.38,4.5-.39,1.38-1.15,2.54-2.28,3.49-2.03,1.69-4.15,2.21-6.34,1.57-2.2-.64-4.42-2.32-6.67-5.02-.78-.94-1.5-1.88-2.15-2.83-.65-.95-1.2-1.91-1.65-2.9-.51-1.16-.39-2.06.37-2.69l17.14-14.26c.65-.54,1.38-.52,2.19.05.85.57,1.67,1.25,2.46,2.03.78.78,1.59,1.68,2.43,2.68,2.1,2.52,3.29,4.86,3.56,7.01.28,2.15-.52,4-2.4,5.56ZM625.22,316.96l-7.23,6.01c.33.63.76,1.32,1.28,2.08.52.76,1.07,1.5,1.67,2.21,1.54,1.85,3.01,3,4.43,3.45,1.41.45,2.77.13,4.09-.97,1.16-.97,1.72-2.16,1.69-3.59-.04-1.42-.75-2.98-2.14-4.65l-3.79-4.55ZM627.43,315.12l3.79,4.55c1.17,1.41,2.37,2.21,3.6,2.42,1.23.21,2.38-.14,3.45-1.03,2.21-1.84,1.87-4.5-1.03-7.98-.65-.78-1.24-1.43-1.77-1.96-.53-.52-1.04-.99-1.54-1.41l-6.49,5.4Z"/>
    <path class="cls-1" d="M659.94,344.24c-.28.16-.91.3-1.92.39-1.01.1-2.3.16-3.87.19s-3.39.03-5.44,0c-2.05-.04-4.25-.11-6.59-.23l-8.32,5c-.13-.09-.3-.25-.52-.48s-.41-.47-.58-.75c-.66-1.1-.53-1.92.39-2.47l7.2-4.33c.6-1.31,1.25-2.68,1.96-4.1s1.42-2.84,2.16-4.27c.73-1.42,1.47-2.8,2.2-4.12.73-1.32,1.44-2.53,2.14-3.62.33-.06.71-.04,1.14.08.43.12.77.4,1.04.85.29.47.38.91.29,1.33-.09.41-.31.9-.64,1.48-.46.82-1,1.78-1.62,2.88-.62,1.1-1.25,2.23-1.89,3.37-.63,1.14-1.25,2.25-1.84,3.32-.6,1.07-1.08,1.97-1.45,2.7l.09.15c2.94,0,5.65-.07,8.12-.18,2.47-.11,4.94-.23,7.4-.36.19.09.37.23.53.42.16.19.31.38.43.58.57.95.43,1.67-.42,2.18Z"/>
  </g>
</svg>